# Blender v3.0.0 OBJ File: ''
# www.blender.org
mtllib Lumber1Full.mtl
o 005.Log.ChoppingBlock_Cylinder
v -1.402317 -0.162500 -1.730126
v -1.402317 0.462500 -1.730126
v -1.268204 -0.162500 -1.593652
v -1.268204 0.462500 -1.593652
v -1.269874 -0.162500 -1.402317
v -1.269874 0.462500 -1.402317
v -1.406348 -0.162500 -1.268204
v -1.406348 0.462500 -1.268204
v -1.597683 -0.162500 -1.269874
v -1.597683 0.462500 -1.269874
v -1.731796 -0.162500 -1.406348
v -1.731796 0.462500 -1.406348
v -1.730126 -0.162500 -1.597683
v -1.730126 0.462500 -1.597683
v -1.593652 -0.162500 -1.731796
v -1.593652 0.462500 -1.731796
v -1.268204 0.462500 -1.593652
v -1.402317 0.462500 -1.730126
v -1.269874 0.462500 -1.402317
v -1.406348 0.462500 -1.268204
v -1.597683 0.462500 -1.269874
v -1.731796 0.462500 -1.406348
v -1.730126 0.462500 -1.597683
v -1.593652 0.462500 -1.731796
v -1.283437 0.462500 -1.587497
v -1.408737 0.462500 -1.715003
v -1.284997 0.462500 -1.408737
v -1.412503 0.462500 -1.283437
v -1.591263 0.462500 -1.284997
v -1.716563 0.462500 -1.412503
v -1.715003 0.462500 -1.591263
v -1.587497 0.462500 -1.716563
v -1.408375 -0.162500 -1.715856
v -1.282578 -0.162500 -1.587844
v -1.284144 -0.162500 -1.408374
v -1.412156 -0.162500 -1.282578
v -1.591626 -0.162500 -1.284144
v -1.717422 -0.162500 -1.412156
v -1.715856 -0.162500 -1.591625
v -1.587844 -0.162500 -1.717422
vt 1.000000 0.500000
vt 1.000000 1.000000
vt 0.875000 1.000000
vt 0.875000 0.500000
vt 0.750000 1.000000
vt 0.750000 0.500000
vt 0.625000 1.000000
vt 0.625000 0.500000
vt 0.500000 1.000000
vt 0.500000 0.500000
vt 0.375000 1.000000
vt 0.375000 0.500000
vt 0.250000 1.000000
vt 0.250000 0.500000
vt 0.375000 1.000000
vt 0.250000 1.000000
vt 0.125000 1.000000
vt 0.125000 0.500000
vt 0.000000 1.000000
vt 0.000000 0.500000
vt 0.500000 0.500000
vt 0.625000 0.500000
vt 0.625000 1.000000
vt 0.500000 1.000000
vt 0.125000 1.000000
vt 0.875000 1.000000
vt 0.750000 1.000000
vt 0.000000 1.000000
vt 1.000000 1.000000
vt 0.750000 1.000000
vt 0.625000 1.000000
vt 1.000000 1.000000
vt 0.875000 1.000000
vt 0.125000 1.000000
vt 0.000000 1.000000
vt 0.375000 1.000000
vt 0.250000 1.000000
vt 0.500000 1.000000
vt 0.125000 0.500000
vt 0.250000 0.500000
vt 0.750000 0.500000
vt 0.875000 0.500000
vt 0.375000 0.500000
vt 0.000000 0.500000
vt 1.000000 0.500000
vn 0.7133 0.0000 -0.7009
vn 1.0000 0.0000 0.0087
vn 0.7009 0.0000 0.7133
vn -0.0087 0.0000 1.0000
vn -0.7133 0.0000 0.7009
vn -1.0000 0.0000 -0.0087
vn 0.0000 0.0000 1.0000
vn -0.7009 0.0000 -0.7133
vn 0.0087 0.0000 -1.0000
vn 0.0000 -1.0000 0.0000
vn 0.0000 1.0000 0.0000
usemtl WoodF4
s off
f 1/1/1 2/2/1 4/3/1 3/4/1
f 3/4/2 4/3/2 6/5/2 5/6/2
f 5/6/3 6/5/3 8/7/3 7/8/3
f 7/8/4 8/7/4 10/9/4 9/10/4
f 9/10/5 10/9/5 12/11/5 11/12/5
f 11/12/6 12/11/6 14/13/6 13/14/6
f 14/13/7 12/11/7 22/15/7 23/16/7
f 13/14/8 14/13/8 16/17/8 15/18/8
f 15/18/9 16/17/9 2/19/9 1/20/9
f 7/8/10 9/10/10 37/21/10 36/22/10
f 10/9/7 8/7/7 20/23/7 21/24/7
f 16/17/7 14/13/7 23/16/7 24/25/7
f 6/5/7 4/3/7 17/26/7 19/27/7
f 12/11/7 10/9/7 21/24/7 22/15/7
f 2/19/7 16/17/7 24/25/7 18/28/7
f 4/3/7 2/2/7 18/29/7 17/26/7
f 8/7/7 6/5/7 19/27/7 20/23/7
f 20/23/11 19/27/11 27/30/11 28/31/11
f 17/26/11 18/29/11 26/32/11 25/33/11
f 18/28/11 24/25/11 32/34/11 26/35/11
f 23/16/11 22/15/11 30/36/11 31/37/11
f 21/24/11 20/23/11 28/31/11 29/38/11
f 19/27/11 17/26/11 25/33/11 27/30/11
f 24/25/11 23/16/11 31/37/11 32/34/11
f 22/15/11 21/24/11 29/38/11 30/36/11
f 13/14/10 15/18/10 40/39/10 39/40/10
f 3/4/10 5/6/10 35/41/10 34/42/10
f 9/10/10 11/12/10 38/43/10 37/21/10
f 15/18/10 1/20/10 33/44/10 40/39/10
f 1/1/10 3/4/10 34/42/10 33/45/10
f 5/6/10 7/8/10 36/22/10 35/41/10
f 11/12/10 13/14/10 39/40/10 38/43/10
usemtl Woodf2
f 25/33/11 26/35/11 32/34/11 31/37/11 30/36/11 29/38/11 28/31/11 27/30/11
f 33/44/10 34/42/10 35/41/10 36/22/10 37/21/10 38/43/10 39/40/10 40/39/10
o 003.Log.001_Cylinder.024
v -2.500000 0.001159 -2.615063
v 0.000000 0.001159 -2.615063
v -2.500000 -0.065898 -2.546826
v 0.000000 -0.065898 -2.546826
v -2.500000 -0.065063 -2.451159
v 0.000000 -0.065063 -2.451159
v -2.500000 0.003174 -2.384102
v 0.000000 0.003174 -2.384102
v -2.500000 0.098841 -2.384937
v 0.000000 0.098841 -2.384937
v -2.500000 0.165898 -2.453174
v 0.000000 0.165898 -2.453174
v -2.500000 0.165063 -2.548841
v 0.000000 0.165063 -2.548841
v -2.500000 0.096826 -2.615898
v 0.000000 0.096826 -2.615898
v 0.000000 -0.065898 -2.546826
v 0.000000 0.001159 -2.615063
v 0.000000 -0.065063 -2.451159
v 0.000000 0.003174 -2.384102
v 0.000000 0.098841 -2.384937
v 0.000000 0.165898 -2.453174
v 0.000000 0.165063 -2.548841
v 0.000000 0.096826 -2.615898
v 0.000000 -0.058282 -2.543749
v 0.000000 0.004368 -2.607502
v 0.000000 -0.057502 -2.454368
v 0.000000 0.006251 -2.391718
v 0.000000 0.095632 -2.392498
v 0.000000 0.158281 -2.456251
v 0.000000 0.157501 -2.545632
v 0.000000 0.093749 -2.608282
v -2.500000 0.004187 -2.607928
v -2.500000 -0.058711 -2.543922
v -2.500000 -0.057928 -2.454187
v -2.500000 0.006078 -2.391289
v -2.500000 0.095813 -2.392072
v -2.500000 0.158711 -2.456078
v -2.500000 0.157928 -2.545813
v -2.500000 0.093922 -2.608711
vt 1.000000 0.500000
vt 1.000000 1.000000
vt 0.875000 1.000000
vt 0.875000 0.500000
vt 0.750000 1.000000
vt 0.750000 0.500000
vt 0.625000 1.000000
vt 0.625000 0.500000
vt 0.500000 1.000000
vt 0.500000 0.500000
vt 0.375000 1.000000
vt 0.375000 0.500000
vt 0.250000 1.000000
vt 0.250000 0.500000
vt 0.375000 1.000000
vt 0.250000 1.000000
vt 0.125000 1.000000
vt 0.125000 0.500000
vt 0.000000 1.000000
vt 0.000000 0.500000
vt 0.500000 0.500000
vt 0.625000 0.500000
vt 0.625000 1.000000
vt 0.500000 1.000000
vt 0.125000 1.000000
vt 0.875000 1.000000
vt 0.750000 1.000000
vt 0.000000 1.000000
vt 1.000000 1.000000
vt 0.750000 1.000000
vt 0.625000 1.000000
vt 1.000000 1.000000
vt 0.875000 1.000000
vt 0.125000 1.000000
vt 0.000000 1.000000
vt 0.375000 1.000000
vt 0.250000 1.000000
vt 0.500000 1.000000
vt 0.125000 0.500000
vt 0.250000 0.500000
vt 0.750000 0.500000
vt 0.875000 0.500000
vt 0.375000 0.500000
vt 0.000000 0.500000
vt 1.000000 0.500000
vn -0.0000 -0.7133 -0.7009
vn -0.0000 -1.0000 0.0087
vn -0.0000 -0.7009 0.7133
vn -0.0000 0.0087 1.0000
vn 0.0000 0.7133 0.7009
vn 0.0000 1.0000 -0.0087
vn 0.0000 0.0000 1.0000
vn 0.0000 0.7009 -0.7133
vn -0.0000 -0.0087 -1.0000
vn -1.0000 0.0000 0.0000
vn 1.0000 0.0000 0.0000
usemtl WoodF4
s off
f 41/46/12 42/47/12 44/48/12 43/49/12
f 43/49/13 44/48/13 46/50/13 45/51/13
f 45/51/14 46/50/14 48/52/14 47/53/14
f 47/53/15 48/52/15 50/54/15 49/55/15
f 49/55/16 50/54/16 52/56/16 51/57/16
f 51/57/17 52/56/17 54/58/17 53/59/17
f 54/58/18 52/56/18 62/60/18 63/61/18
f 53/59/19 54/58/19 56/62/19 55/63/19
f 55/63/20 56/62/20 42/64/20 41/65/20
f 47/53/21 49/55/21 77/66/21 76/67/21
f 50/54/18 48/52/18 60/68/18 61/69/18
f 56/62/18 54/58/18 63/61/18 64/70/18
f 46/50/18 44/48/18 57/71/18 59/72/18
f 52/56/18 50/54/18 61/69/18 62/60/18
f 42/64/18 56/62/18 64/70/18 58/73/18
f 44/48/18 42/47/18 58/74/18 57/71/18
f 48/52/18 46/50/18 59/72/18 60/68/18
f 60/68/22 59/72/22 67/75/22 68/76/22
f 57/71/22 58/74/22 66/77/22 65/78/22
f 58/73/22 64/70/22 72/79/22 66/80/22
f 63/61/22 62/60/22 70/81/22 71/82/22
f 61/69/22 60/68/22 68/76/22 69/83/22
f 59/72/22 57/71/22 65/78/22 67/75/22
f 64/70/22 63/61/22 71/82/22 72/79/22
f 62/60/22 61/69/22 69/83/22 70/81/22
f 53/59/21 55/63/21 80/84/21 79/85/21
f 43/49/21 45/51/21 75/86/21 74/87/21
f 49/55/21 51/57/21 78/88/21 77/66/21
f 55/63/21 41/65/21 73/89/21 80/84/21
f 41/46/21 43/49/21 74/87/21 73/90/21
f 45/51/21 47/53/21 76/67/21 75/86/21
f 51/57/21 53/59/21 79/85/21 78/88/21
usemtl Woodf2
f 65/78/22 66/80/22 72/79/22 71/82/22 70/81/22 69/83/22 68/76/22 67/75/22
f 73/89/21 74/87/21 75/86/21 76/67/21 77/66/21 78/88/21 79/85/21 80/84/21
o 004.Log.002_Cylinder.025
v 0.000000 0.001159 -2.615063
v 2.500000 0.001159 -2.615063
v 0.000000 -0.065898 -2.546826
v 2.500000 -0.065898 -2.546826
v 0.000000 -0.065063 -2.451159
v 2.500000 -0.065063 -2.451159
v 0.000000 0.003174 -2.384102
v 2.500000 0.003174 -2.384102
v 0.000000 0.098841 -2.384937
v 2.500000 0.098841 -2.384937
v 0.000000 0.165898 -2.453174
v 2.500000 0.165898 -2.453174
v 0.000000 0.165063 -2.548841
v 2.500000 0.165063 -2.548841
v 0.000000 0.096826 -2.615898
v 2.500000 0.096826 -2.615898
v 2.500000 -0.065898 -2.546826
v 2.500000 0.001159 -2.615063
v 2.500000 -0.065063 -2.451159
v 2.500000 0.003174 -2.384102
v 2.500000 0.098841 -2.384937
v 2.500000 0.165898 -2.453174
v 2.500000 0.165063 -2.548841
v 2.500000 0.096826 -2.615898
v 2.500000 -0.058282 -2.543749
v 2.500000 0.004368 -2.607502
v 2.500000 -0.057502 -2.454368
v 2.500000 0.006251 -2.391718
v 2.500000 0.095632 -2.392498
v 2.500000 0.158281 -2.456251
v 2.500000 0.157501 -2.545632
v 2.500000 0.093749 -2.608282
v 0.000000 0.004187 -2.607928
v 0.000000 -0.058711 -2.543922
v 0.000000 -0.057928 -2.454187
v 0.000000 0.006078 -2.391289
v 0.000000 0.095813 -2.392072
v 0.000000 0.158711 -2.456078
v 0.000000 0.157928 -2.545813
v 0.000000 0.093922 -2.608711
vt 1.000000 0.500000
vt 1.000000 1.000000
vt 0.875000 1.000000
vt 0.875000 0.500000
vt 0.750000 1.000000
vt 0.750000 0.500000
vt 0.625000 1.000000
vt 0.625000 0.500000
vt 0.500000 1.000000
vt 0.500000 0.500000
vt 0.375000 1.000000
vt 0.375000 0.500000
vt 0.250000 1.000000
vt 0.250000 0.500000
vt 0.375000 1.000000
vt 0.250000 1.000000
vt 0.125000 1.000000
vt 0.125000 0.500000
vt 0.000000 1.000000
vt 0.000000 0.500000
vt 0.500000 0.500000
vt 0.625000 0.500000
vt 0.625000 1.000000
vt 0.500000 1.000000
vt 0.125000 1.000000
vt 0.875000 1.000000
vt 0.750000 1.000000
vt 0.000000 1.000000
vt 1.000000 1.000000
vt 0.750000 1.000000
vt 0.625000 1.000000
vt 1.000000 1.000000
vt 0.875000 1.000000
vt 0.125000 1.000000
vt 0.000000 1.000000
vt 0.375000 1.000000
vt 0.250000 1.000000
vt 0.500000 1.000000
vt 0.125000 0.500000
vt 0.250000 0.500000
vt 0.750000 0.500000
vt 0.875000 0.500000
vt 0.375000 0.500000
vt 0.000000 0.500000
vt 1.000000 0.500000
vn -0.0000 -0.7133 -0.7009
vn -0.0000 -1.0000 0.0087
vn -0.0000 -0.7009 0.7133
vn -0.0000 0.0087 1.0000
vn 0.0000 0.7133 0.7009
vn 0.0000 1.0000 -0.0087
vn 0.0000 0.0000 1.0000
vn 0.0000 0.7009 -0.7133
vn -0.0000 -0.0087 -1.0000
vn -1.0000 0.0000 0.0000
vn 1.0000 0.0000 0.0000
usemtl WoodF4
s off
f 81/91/23 82/92/23 84/93/23 83/94/23
f 83/94/24 84/93/24 86/95/24 85/96/24
f 85/96/25 86/95/25 88/97/25 87/98/25
f 87/98/26 88/97/26 90/99/26 89/100/26
f 89/100/27 90/99/27 92/101/27 91/102/27
f 91/102/28 92/101/28 94/103/28 93/104/28
f 94/103/29 92/101/29 102/105/29 103/106/29
f 93/104/30 94/103/30 96/107/30 95/108/30
f 95/108/31 96/107/31 82/109/31 81/110/31
f 87/98/32 89/100/32 117/111/32 116/112/32
f 90/99/29 88/97/29 100/113/29 101/114/29
f 96/107/29 94/103/29 103/106/29 104/115/29
f 86/95/29 84/93/29 97/116/29 99/117/29
f 92/101/29 90/99/29 101/114/29 102/105/29
f 82/109/29 96/107/29 104/115/29 98/118/29
f 84/93/29 82/92/29 98/119/29 97/116/29
f 88/97/29 86/95/29 99/117/29 100/113/29
f 100/113/33 99/117/33 107/120/33 108/121/33
f 97/116/33 98/119/33 106/122/33 105/123/33
f 98/118/33 104/115/33 112/124/33 106/125/33
f 103/106/33 102/105/33 110/126/33 111/127/33
f 101/114/33 100/113/33 108/121/33 109/128/33
f 99/117/33 97/116/33 105/123/33 107/120/33
f 104/115/33 103/106/33 111/127/33 112/124/33
f 102/105/33 101/114/33 109/128/33 110/126/33
f 93/104/32 95/108/32 120/129/32 119/130/32
f 83/94/32 85/96/32 115/131/32 114/132/32
f 89/100/32 91/102/32 118/133/32 117/111/32
f 95/108/32 81/110/32 113/134/32 120/129/32
f 81/91/32 83/94/32 114/132/32 113/135/32
f 85/96/32 87/98/32 116/112/32 115/131/32
f 91/102/32 93/104/32 119/130/32 118/133/32
usemtl Woodf2
f 105/123/33 106/125/33 112/124/33 111/127/33 110/126/33 109/128/33 108/121/33 107/120/33
f 113/134/32 114/132/32 115/131/32 116/112/32 117/111/32 118/133/32 119/130/32 120/129/32
o 002.Log.003_Cylinder.026
v -2.284937 0.001159 -2.380000
v -2.284937 0.001159 0.120000
v -2.353174 -0.065898 -2.380000
v -2.353174 -0.065898 0.120000
v -2.448841 -0.065063 -2.380000
v -2.448842 -0.065063 0.120000
v -2.515898 0.003174 -2.380000
v -2.515898 0.003174 0.120000
v -2.515063 0.098841 -2.380000
v -2.515063 0.098841 0.120000
v -2.446826 0.165898 -2.380000
v -2.446826 0.165898 0.120000
v -2.351159 0.165063 -2.380000
v -2.351159 0.165063 0.120000
v -2.284102 0.096826 -2.380000
v -2.284102 0.096826 0.120000
v -2.353174 -0.065898 0.120000
v -2.284937 0.001159 0.120000
v -2.448842 -0.065063 0.120000
v -2.515898 0.003174 0.120000
v -2.515063 0.098841 0.120000
v -2.446826 0.165898 0.120000
v -2.351159 0.165063 0.120000
v -2.284102 0.096826 0.120000
v -2.356251 -0.058281 0.120000
v -2.292499 0.004368 0.120000
v -2.445632 -0.057501 0.120000
v -2.508282 0.006251 0.120000
v -2.507502 0.095632 0.120000
v -2.443749 0.158282 0.120000
v -2.354368 0.157502 0.120000
v -2.291719 0.093749 0.120000
v -2.292072 0.004187 -2.380000
v -2.356078 -0.058711 -2.380000
v -2.445813 -0.057928 -2.380000
v -2.508711 0.006078 -2.380000
v -2.507928 0.095813 -2.380000
v -2.443922 0.158711 -2.380000
v -2.354187 0.157928 -2.380000
v -2.291289 0.093922 -2.380000
vt 1.000000 0.500000
vt 1.000000 1.000000
vt 0.875000 1.000000
vt 0.875000 0.500000
vt 0.750000 1.000000
vt 0.750000 0.500000
vt 0.625000 1.000000
vt 0.625000 0.500000
vt 0.500000 1.000000
vt 0.500000 0.500000
vt 0.375000 1.000000
vt 0.375000 0.500000
vt 0.250000 1.000000
vt 0.250000 0.500000
vt 0.375000 1.000000
vt 0.250000 1.000000
vt 0.125000 1.000000
vt 0.125000 0.500000
vt 0.000000 1.000000
vt 0.000000 0.500000
vt 0.500000 0.500000
vt 0.625000 0.500000
vt 0.625000 1.000000
vt 0.500000 1.000000
vt 0.125000 1.000000
vt 0.875000 1.000000
vt 0.750000 1.000000
vt 0.000000 1.000000
vt 1.000000 1.000000
vt 0.750000 1.000000
vt 0.625000 1.000000
vt 1.000000 1.000000
vt 0.875000 1.000000
vt 0.125000 1.000000
vt 0.000000 1.000000
vt 0.375000 1.000000
vt 0.250000 1.000000
vt 0.500000 1.000000
vt 0.125000 0.500000
vt 0.250000 0.500000
vt 0.750000 0.500000
vt 0.875000 0.500000
vt 0.375000 0.500000
vt 0.000000 0.500000
vt 1.000000 0.500000
vn 0.7009 -0.7133 0.0000
vn -0.0087 -1.0000 0.0000
vn -0.7133 -0.7009 -0.0000
vn -1.0000 0.0087 -0.0000
vn -0.7009 0.7133 -0.0000
vn 0.0087 1.0000 -0.0000
vn 0.0000 0.0000 1.0000
vn 0.7132 0.7009 0.0000
vn 1.0000 -0.0087 0.0000
vn 0.0000 0.0000 -1.0000
usemtl WoodF4
s off
f 121/136/34 122/137/34 124/138/34 123/139/34
f 123/139/35 124/138/35 126/140/35 125/141/35
f 125/141/36 126/140/36 128/142/36 127/143/36
f 127/143/37 128/142/37 130/144/37 129/145/37
f 129/145/38 130/144/38 132/146/38 131/147/38
f 131/147/39 132/146/39 134/148/39 133/149/39
f 134/148/40 132/146/40 142/150/40 143/151/40
f 133/149/41 134/148/41 136/152/41 135/153/41
f 135/153/42 136/152/42 122/154/42 121/155/42
f 127/143/43 129/145/43 157/156/43 156/157/43
f 130/144/40 128/142/40 140/158/40 141/159/40
f 136/152/40 134/148/40 143/151/40 144/160/40
f 126/140/40 124/138/40 137/161/40 139/162/40
f 132/146/40 130/144/40 141/159/40 142/150/40
f 122/154/40 136/152/40 144/160/40 138/163/40
f 124/138/40 122/137/40 138/164/40 137/161/40
f 128/142/40 126/140/40 139/162/40 140/158/40
f 140/158/40 139/162/40 147/165/40 148/166/40
f 137/161/40 138/164/40 146/167/40 145/168/40
f 138/163/40 144/160/40 152/169/40 146/170/40
f 143/151/40 142/150/40 150/171/40 151/172/40
f 141/159/40 140/158/40 148/166/40 149/173/40
f 139/162/40 137/161/40 145/168/40 147/165/40
f 144/160/40 143/151/40 151/172/40 152/169/40
f 142/150/40 141/159/40 149/173/40 150/171/40
f 133/149/43 135/153/43 160/174/43 159/175/43
f 123/139/43 125/141/43 155/176/43 154/177/43
f 129/145/43 131/147/43 158/178/43 157/156/43
f 135/153/43 121/155/43 153/179/43 160/174/43
f 121/136/43 123/139/43 154/177/43 153/180/43
f 125/141/43 127/143/43 156/157/43 155/176/43
f 131/147/43 133/149/43 159/175/43 158/178/43
usemtl Woodf2
f 145/168/40 146/170/40 152/169/40 151/172/40 150/171/40 149/173/40 148/166/40 147/165/40
f 153/179/43 154/177/43 155/176/43 156/157/43 157/156/43 158/178/43 159/175/43 160/174/43
o 001.Log_Cylinder.027
v -2.284937 0.001159 0.120000
v -2.284937 0.001159 2.620000
v -2.353174 -0.065898 0.120000
v -2.353174 -0.065898 2.620000
v -2.448841 -0.065063 0.120000
v -2.448842 -0.065063 2.620000
v -2.515898 0.003174 0.120000
v -2.515898 0.003174 2.620000
v -2.515063 0.098841 0.120000
v -2.515063 0.098841 2.620000
v -2.446826 0.165898 0.120000
v -2.446826 0.165898 2.620000
v -2.351159 0.165063 0.120000
v -2.351159 0.165063 2.620000
v -2.284102 0.096826 0.120000
v -2.284102 0.096826 2.620000
v -2.353174 -0.065898 2.620000
v -2.284937 0.001159 2.620000
v -2.448842 -0.065063 2.620000
v -2.515898 0.003174 2.620000
v -2.515063 0.098841 2.620000
v -2.446826 0.165898 2.620000
v -2.351159 0.165063 2.620000
v -2.284102 0.096826 2.620000
v -2.356251 -0.058281 2.620000
v -2.292499 0.004368 2.620000
v -2.445632 -0.057501 2.620000
v -2.508282 0.006251 2.620000
v -2.507502 0.095632 2.620000
v -2.443749 0.158282 2.620000
v -2.354368 0.157502 2.620000
v -2.291719 0.093749 2.620000
v -2.292072 0.004187 0.120000
v -2.356078 -0.058711 0.120000
v -2.445813 -0.057928 0.120000
v -2.508711 0.006078 0.120000
v -2.507928 0.095813 0.120000
v -2.443922 0.158711 0.120000
v -2.354187 0.157928 0.120000
v -2.291289 0.093922 0.120000
vt 1.000000 0.500000
vt 1.000000 1.000000
vt 0.875000 1.000000
vt 0.875000 0.500000
vt 0.750000 1.000000
vt 0.750000 0.500000
vt 0.625000 1.000000
vt 0.625000 0.500000
vt 0.500000 1.000000
vt 0.500000 0.500000
vt 0.375000 1.000000
vt 0.375000 0.500000
vt 0.250000 1.000000
vt 0.250000 0.500000
vt 0.375000 1.000000
vt 0.250000 1.000000
vt 0.125000 1.000000
vt 0.125000 0.500000
vt 0.000000 1.000000
vt 0.000000 0.500000
vt 0.500000 0.500000
vt 0.625000 0.500000
vt 0.625000 1.000000
vt 0.500000 1.000000
vt 0.125000 1.000000
vt 0.875000 1.000000
vt 0.750000 1.000000
vt 0.000000 1.000000
vt 1.000000 1.000000
vt 0.750000 1.000000
vt 0.625000 1.000000
vt 1.000000 1.000000
vt 0.875000 1.000000
vt 0.125000 1.000000
vt 0.000000 1.000000
vt 0.375000 1.000000
vt 0.250000 1.000000
vt 0.500000 1.000000
vt 0.125000 0.500000
vt 0.250000 0.500000
vt 0.750000 0.500000
vt 0.875000 0.500000
vt 0.375000 0.500000
vt 0.000000 0.500000
vt 1.000000 0.500000
vn 0.7009 -0.7133 0.0000
vn -0.0087 -1.0000 0.0000
vn -0.7133 -0.7009 -0.0000
vn -1.0000 0.0087 -0.0000
vn -0.7009 0.7133 -0.0000
vn 0.0087 1.0000 -0.0000
vn 0.0000 0.0000 1.0000
vn 0.7132 0.7009 0.0000
vn 1.0000 -0.0087 0.0000
vn 0.0000 0.0000 -1.0000
usemtl WoodF4
s off
f 161/181/44 162/182/44 164/183/44 163/184/44
f 163/184/45 164/183/45 166/185/45 165/186/45
f 165/186/46 166/185/46 168/187/46 167/188/46
f 167/188/47 168/187/47 170/189/47 169/190/47
f 169/190/48 170/189/48 172/191/48 171/192/48
f 171/192/49 172/191/49 174/193/49 173/194/49
f 174/193/50 172/191/50 182/195/50 183/196/50
f 173/194/51 174/193/51 176/197/51 175/198/51
f 175/198/52 176/197/52 162/199/52 161/200/52
f 167/188/53 169/190/53 197/201/53 196/202/53
f 170/189/50 168/187/50 180/203/50 181/204/50
f 176/197/50 174/193/50 183/196/50 184/205/50
f 166/185/50 164/183/50 177/206/50 179/207/50
f 172/191/50 170/189/50 181/204/50 182/195/50
f 162/199/50 176/197/50 184/205/50 178/208/50
f 164/183/50 162/182/50 178/209/50 177/206/50
f 168/187/50 166/185/50 179/207/50 180/203/50
f 180/203/50 179/207/50 187/210/50 188/211/50
f 177/206/50 178/209/50 186/212/50 185/213/50
f 178/208/50 184/205/50 192/214/50 186/215/50
f 183/196/50 182/195/50 190/216/50 191/217/50
f 181/204/50 180/203/50 188/211/50 189/218/50
f 179/207/50 177/206/50 185/213/50 187/210/50
f 184/205/50 183/196/50 191/217/50 192/214/50
f 182/195/50 181/204/50 189/218/50 190/216/50
f 173/194/53 175/198/53 200/219/53 199/220/53
f 163/184/53 165/186/53 195/221/53 194/222/53
f 169/190/53 171/192/53 198/223/53 197/201/53
f 175/198/53 161/200/53 193/224/53 200/219/53
f 161/181/53 163/184/53 194/222/53 193/225/53
f 165/186/53 167/188/53 196/202/53 195/221/53
f 171/192/53 173/194/53 199/220/53 198/223/53
usemtl Woodf2
f 185/213/50 186/215/50 192/214/50 191/217/50 190/216/50 189/218/50 188/211/50 187/210/50
f 193/224/53 194/222/53 195/221/53 196/202/53 197/201/53 198/223/53 199/220/53 200/219/53
