# MagicaVoxel @ Ephtracy

# group
o 

# material
mtllib biplane.mtl
usemtl palette

# normals
vn -1 0 0
vn 1 0 0
vn 0 0 1
vn 0 0 -1
vn 0 -1 0
vn 0 1 0

# texcoords
vt 0.751953 0.5
vt 0.861328 0.5
vt 0.869141 0.5
vt 0.994141 0.5

# verts
v -8 1 1
v -8 1 -2
v -8 2 1
v -8 2 -2
v -8 5 3
v -8 5 0
v -8 6 3
v -8 6 0
v -7 2 1
v -7 2 0
v -7 2 -1
v -7 2 -2
v -7 3 2
v -7 3 1
v -7 3 0
v -7 3 -1
v -7 3 -2
v -7 4 3
v -7 4 2
v -7 4 1
v -7 4 0
v -7 4 -1
v -7 5 3
v -7 5 2
v -7 5 1
v -7 5 0
v -4 3 -7
v -4 3 -8
v -4 3 -9
v -4 4 -7
v -4 4 -8
v -4 4 -9
v -3 2 5
v -3 2 4
v -3 3 5
v -3 3 4
v -3 3 -6
v -3 3 -7
v -3 4 -6
v -3 4 -7
v -2 0 1
v -2 0 0
v -2 1 5
v -2 1 4
v -2 1 1
v -2 1 0
v -2 1 -2
v -2 1 -3
v -2 2 5
v -2 2 4
v -2 2 1
v -2 2 -2
v -2 2 -3
v -2 2 -7
v -2 3 5
v -2 3 4
v -2 3 -6
v -2 3 -7
v -2 4 5
v -2 4 4
v -2 4 0
v -2 4 -1
v -2 4 -6
v -2 5 0
v -2 5 -1
v -1 0 5
v -1 0 4
v -1 1 5
v -1 1 4
v -1 1 -3
v -1 1 -5
v -1 1 -7
v -1 1 -8
v -1 2 -3
v -1 2 -5
v -1 2 -7
v -1 2 -8
v -1 2 -9
v -1 3 -7
v -1 3 -9
v -1 4 5
v -1 4 4
v -1 4 1
v -1 4 0
v -1 4 -6
v -1 4 -8
v -1 4 -9
v -1 5 5
v -1 5 4
v -1 5 1
v -1 5 0
v -1 5 -6
v -1 5 -7
v -1 6 -7
v -1 6 -8
v -1 6 -9
v 0 0 1
v 0 0 0
v 0 1 1
v 0 1 0
v 0 3 0
v 0 3 -2
v 0 4 0
v 0 4 -1
v 0 4 -2
v 0 5 0
v 0 5 -1
v 1 5 1
v 1 5 0
v 1 6 1
v 1 6 0
v 5 2 1
v 5 2 0
v 5 2 -1
v 5 2 -2
v 5 3 2
v 5 3 1
v 5 3 0
v 5 3 -1
v 5 3 -2
v 5 4 3
v 5 4 2
v 5 4 1
v 5 4 0
v 5 4 -1
v 5 5 3
v 5 5 2
v 5 5 1
v 5 5 0
v -6 2 1
v -6 2 0
v -6 2 -1
v -6 2 -2
v -6 3 2
v -6 3 1
v -6 3 0
v -6 3 -1
v -6 3 -2
v -6 4 3
v -6 4 2
v -6 4 1
v -6 4 0
v -6 4 -1
v -6 5 3
v -6 5 2
v -6 5 1
v -6 5 0
v -2 5 1
v -2 5 0
v -2 6 1
v -2 6 0
v -1 0 1
v -1 0 0
v -1 1 1
v -1 1 0
v -1 3 0
v -1 3 -2
v -1 4 0
v -1 4 -1
v -1 4 -2
v -1 5 0
v -1 5 -1
v 0 0 5
v 0 0 4
v 0 1 5
v 0 1 4
v 0 1 -3
v 0 1 -5
v 0 1 -7
v 0 1 -8
v 0 2 -3
v 0 2 -5
v 0 2 -7
v 0 2 -8
v 0 2 -9
v 0 3 -7
v 0 3 -9
v 0 4 5
v 0 4 4
v 0 4 1
v 0 4 0
v 0 4 -6
v 0 4 -8
v 0 4 -9
v 0 5 5
v 0 5 4
v 0 5 1
v 0 5 0
v 0 5 -6
v 0 5 -7
v 0 6 -7
v 0 6 -8
v 0 6 -9
v 1 0 1
v 1 0 0
v 1 1 5
v 1 1 4
v 1 1 1
v 1 1 0
v 1 1 -2
v 1 1 -3
v 1 2 5
v 1 2 4
v 1 2 1
v 1 2 -2
v 1 2 -3
v 1 2 -7
v 1 3 5
v 1 3 4
v 1 3 -6
v 1 3 -7
v 1 4 5
v 1 4 4
v 1 4 0
v 1 4 -1
v 1 4 -6
v 1 5 0
v 1 5 -1
v 2 2 5
v 2 2 4
v 2 3 5
v 2 3 4
v 2 3 -6
v 2 3 -7
v 2 4 -6
v 2 4 -7
v 3 3 -7
v 3 3 -8
v 3 3 -9
v 3 4 -7
v 3 4 -8
v 3 4 -9
v 6 2 1
v 6 2 0
v 6 2 -1
v 6 2 -2
v 6 3 2
v 6 3 1
v 6 3 0
v 6 3 -1
v 6 3 -2
v 6 4 3
v 6 4 2
v 6 4 1
v 6 4 0
v 6 4 -1
v 6 5 3
v 6 5 2
v 6 5 1
v 6 5 0
v 7 1 1
v 7 1 -2
v 7 2 1
v 7 2 -2
v 7 5 3
v 7 5 0
v 7 6 3
v 7 6 0
v -3 2 5
v -3 3 5
v -2 1 5
v -2 2 5
v -2 3 5
v -2 4 5
v -1 0 5
v -1 1 5
v -1 4 5
v -1 5 5
v 0 0 5
v 0 1 5
v 0 4 5
v 0 5 5
v 1 1 5
v 1 2 5
v 1 3 5
v 1 4 5
v 2 2 5
v 2 3 5
v -8 5 3
v -8 6 3
v -7 4 3
v -7 5 3
v -6 4 3
v -6 5 3
v 5 4 3
v 5 5 3
v 6 4 3
v 6 5 3
v 7 5 3
v 7 6 3
v -7 3 2
v -7 4 2
v -6 3 2
v -6 4 2
v 5 3 2
v 5 4 2
v 6 3 2
v 6 4 2
v -8 1 1
v -8 2 1
v -7 2 1
v -7 3 1
v -7 4 1
v -7 5 1
v -6 2 1
v -6 3 1
v -6 4 1
v -6 5 1
v -2 0 1
v -2 1 1
v -2 2 1
v -1 0 1
v -1 1 1
v -1 4 1
v -1 5 1
v 0 0 1
v 0 1 1
v 0 4 1
v 0 5 1
v 1 0 1
v 1 1 1
v 1 2 1
v 5 2 1
v 5 3 1
v 5 4 1
v 5 5 1
v 6 2 1
v 6 3 1
v 6 4 1
v 6 5 1
v 7 1 1
v 7 2 1
v -7 3 0
v -7 4 0
v -6 3 0
v -6 4 0
v -2 4 0
v -2 5 0
v -1 4 0
v -1 5 0
v 0 4 0
v 0 5 0
v 1 4 0
v 1 5 0
v 5 3 0
v 5 4 0
v 6 3 0
v 6 4 0
v -7 2 -1
v -7 3 -1
v -6 2 -1
v -6 3 -1
v 5 2 -1
v 5 3 -1
v 6 2 -1
v 6 3 -1
v -1 3 -2
v -1 4 -2
v 0 3 -2
v 0 4 -2
v -3 3 -6
v -3 4 -6
v -2 3 -6
v -2 4 -6
v -1 4 -6
v -1 5 -6
v 0 4 -6
v 0 5 -6
v 1 3 -6
v 1 4 -6
v 2 3 -6
v 2 4 -6
v -4 3 -7
v -4 4 -7
v -3 3 -7
v -3 4 -7
v -1 1 -7
v -1 2 -7
v -1 5 -7
v -1 6 -7
v 0 1 -7
v 0 2 -7
v 0 5 -7
v 0 6 -7
v 2 3 -7
v 2 4 -7
v 3 3 -7
v 3 4 -7
v -3 2 4
v -3 3 4
v -2 2 4
v -2 3 4
v -1 0 4
v -1 1 4
v -1 4 4
v -1 5 4
v 0 0 4
v 0 1 4
v 0 4 4
v 0 5 4
v 1 2 4
v 1 3 4
v 2 2 4
v 2 3 4
v -7 4 2
v -7 5 2
v -6 4 2
v -6 5 2
v 5 4 2
v 5 5 2
v 6 4 2
v 6 5 2
v -7 3 1
v -7 4 1
v -6 3 1
v -6 4 1
v -2 5 1
v -2 6 1
v -1 5 1
v 0 5 1
v 1 5 1
v 1 6 1
v 5 3 1
v 5 4 1
v 6 3 1
v 6 4 1
v -8 5 0
v -8 6 0
v -7 2 0
v -7 3 0
v -7 4 0
v -7 5 0
v -6 2 0
v -6 3 0
v -6 4 0
v -6 5 0
v -6 6 0
v -3 5 0
v -3 6 0
v -2 0 0
v -2 1 0
v -2 5 0
v -2 6 0
v -1 0 0
v -1 1 0
v -1 3 0
v -1 4 0
v -1 5 0
v 0 0 0
v 0 1 0
v 0 3 0
v 0 4 0
v 0 5 0
v 1 0 0
v 1 1 0
v 1 5 0
v 1 6 0
v 2 5 0
v 2 6 0
v 5 2 0
v 5 3 0
v 5 4 0
v 5 5 0
v 5 6 0
v 6 2 0
v 6 3 0
v 6 4 0
v 6 5 0
v 7 5 0
v 7 6 0
v -7 3 -1
v -7 4 -1
v -6 3 -1
v -6 4 -1
v -2 4 -1
v -2 5 -1
v -1 4 -1
v -1 5 -1
v 0 4 -1
v 0 5 -1
v 1 4 -1
v 1 5 -1
v 5 3 -1
v 5 4 -1
v 6 3 -1
v 6 4 -1
v -8 1 -2
v -8 2 -2
v -7 2 -2
v -7 3 -2
v -6 1 -2
v -6 2 -2
v -6 3 -2
v -3 1 -2
v -3 2 -2
v -2 1 -2
v -2 2 -2
v 1 1 -2
v 1 2 -2
v 2 1 -2
v 2 2 -2
v 5 1 -2
v 5 2 -2
v 5 3 -2
v 6 2 -2
v 6 3 -2
v 7 1 -2
v 7 2 -2
v -2 1 -3
v -2 2 -3
v -1 1 -3
v -1 2 -3
v 0 1 -3
v 0 2 -3
v 1 1 -3
v 1 2 -3
v -1 1 -5
v -1 2 -5
v 0 1 -5
v 0 2 -5
v -2 2 -7
v -2 3 -7
v -1 2 -7
v -1 3 -7
v 0 2 -7
v 0 3 -7
v 1 2 -7
v 1 3 -7
v -1 1 -8
v -1 2 -8
v 0 1 -8
v 0 2 -8
v -4 3 -9
v -4 4 -9
v -2 3 -9
v -2 4 -9
v -1 2 -9
v -1 3 -9
v -1 4 -9
v -1 6 -9
v 0 2 -9
v 0 3 -9
v 0 4 -9
v 0 6 -9
v 1 3 -9
v 1 4 -9
v 3 3 -9
v 3 4 -9
v -1 0 5
v 0 0 5
v -1 0 4
v 0 0 4
v -2 0 1
v -1 0 1
v 0 0 1
v 1 0 1
v -2 0 0
v -1 0 0
v 0 0 0
v 1 0 0
v -2 1 5
v -1 1 5
v 0 1 5
v 1 1 5
v -2 1 4
v -1 1 4
v 0 1 4
v 1 1 4
v -8 1 1
v -2 1 1
v -1 1 1
v 0 1 1
v 1 1 1
v 7 1 1
v -2 1 0
v -1 1 0
v 0 1 0
v 1 1 0
v -6 1 -1
v -3 1 -1
v 2 1 -1
v 5 1 -1
v -8 1 -2
v -6 1 -2
v -3 1 -2
v -2 1 -2
v 1 1 -2
v 2 1 -2
v 5 1 -2
v 7 1 -2
v -2 1 -3
v -1 1 -3
v 0 1 -3
v 1 1 -3
v -1 1 -5
v 0 1 -5
v -1 1 -7
v 0 1 -7
v -1 1 -8
v 0 1 -8
v -3 2 5
v -2 2 5
v 1 2 5
v 2 2 5
v -3 2 4
v -2 2 4
v 1 2 4
v 2 2 4
v -2 2 -3
v -1 2 -3
v 0 2 -3
v 1 2 -3
v -1 2 -5
v 0 2 -5
v -2 2 -7
v -1 2 -7
v 0 2 -7
v 1 2 -7
v -1 2 -8
v 0 2 -8
v -1 2 -9
v 0 2 -9
v -7 3 2
v -6 3 2
v 5 3 2
v 6 3 2
v -7 3 1
v -6 3 1
v 5 3 1
v 6 3 1
v -7 3 0
v -6 3 0
v 5 3 0
v 6 3 0
v -7 3 -1
v -6 3 -1
v 5 3 -1
v 6 3 -1
v -3 3 -6
v -2 3 -6
v 1 3 -6
v 2 3 -6
v -4 3 -7
v -3 3 -7
v -2 3 -7
v -1 3 -7
v 0 3 -7
v 1 3 -7
v 2 3 -7
v 3 3 -7
v -4 3 -8
v -2 3 -8
v 1 3 -8
v 3 3 -8
v -4 3 -9
v -2 3 -9
v -1 3 -9
v 0 3 -9
v 1 3 -9
v 3 3 -9
v -7 4 3
v -6 4 3
v 5 4 3
v 6 4 3
v -7 4 2
v -6 4 2
v 5 4 2
v 6 4 2
v -7 4 1
v -6 4 1
v 5 4 1
v 6 4 1
v -7 4 0
v -6 4 0
v 5 4 0
v 6 4 0
v -8 5 3
v -7 5 3
v -6 5 3
v 5 5 3
v 6 5 3
v 7 5 3
v -7 5 2
v -6 5 2
v 5 5 2
v 6 5 2
v -7 5 1
v -6 5 1
v -3 5 1
v -2 5 1
v -1 5 1
v 0 5 1
v 1 5 1
v 2 5 1
v 5 5 1
v 6 5 1
v -8 5 0
v -7 5 0
v -6 5 0
v -3 5 0
v -2 5 0
v 1 5 0
v 2 5 0
v 5 5 0
v 6 5 0
v 7 5 0
v -8 2 1
v -7 2 1
v -6 2 1
v -2 2 1
v 1 2 1
v 5 2 1
v 6 2 1
v 7 2 1
v -7 2 0
v -6 2 0
v 5 2 0
v 6 2 0
v -7 2 -1
v -6 2 -1
v -3 2 -1
v 2 2 -1
v 5 2 -1
v 6 2 -1
v -8 2 -2
v -7 2 -2
v -6 2 -2
v -3 2 -2
v -2 2 -2
v 1 2 -2
v 2 2 -2
v 5 2 -2
v 6 2 -2
v 7 2 -2
v -3 3 5
v -2 3 5
v 1 3 5
v 2 3 5
v -3 3 4
v -2 3 4
v 1 3 4
v 2 3 4
v -7 3 1
v -6 3 1
v 5 3 1
v 6 3 1
v -7 3 0
v -6 3 0
v -1 3 0
v 0 3 0
v 5 3 0
v 6 3 0
v -7 3 -1
v -6 3 -1
v 5 3 -1
v 6 3 -1
v -7 3 -2
v -6 3 -2
v -1 3 -2
v 0 3 -2
v 5 3 -2
v 6 3 -2
v -2 4 5
v -1 4 5
v 0 4 5
v 1 4 5
v -2 4 4
v -1 4 4
v 0 4 4
v 1 4 4
v -7 4 2
v -6 4 2
v 5 4 2
v 6 4 2
v -7 4 1
v -6 4 1
v -1 4 1
v 0 4 1
v 5 4 1
v 6 4 1
v -7 4 0
v -6 4 0
v -2 4 0
v -1 4 0
v 0 4 0
v 1 4 0
v 5 4 0
v 6 4 0
v -7 4 -1
v -6 4 -1
v -2 4 -1
v -1 4 -1
v 0 4 -1
v 1 4 -1
v 5 4 -1
v 6 4 -1
v -1 4 -2
v 0 4 -2
v -3 4 -6
v -2 4 -6
v -1 4 -6
v 0 4 -6
v 1 4 -6
v 2 4 -6
v -4 4 -7
v -3 4 -7
v 2 4 -7
v 3 4 -7
v -4 4 -8
v -2 4 -8
v -1 4 -8
v 0 4 -8
v 1 4 -8
v 3 4 -8
v -4 4 -9
v -2 4 -9
v -1 4 -9
v 0 4 -9
v 1 4 -9
v 3 4 -9
v -1 5 5
v 0 5 5
v -1 5 4
v 0 5 4
v -1 5 1
v 0 5 1
v -2 5 0
v -1 5 0
v 0 5 0
v 1 5 0
v -2 5 -1
v -1 5 -1
v 0 5 -1
v 1 5 -1
v -1 5 -6
v 0 5 -6
v -1 5 -7
v 0 5 -7
v -8 6 3
v 7 6 3
v -6 6 1
v -3 6 1
v -2 6 1
v 1 6 1
v 2 6 1
v 5 6 1
v -8 6 0
v -6 6 0
v -3 6 0
v -2 6 0
v 1 6 0
v 2 6 0
v 5 6 0
v 7 6 0
v -1 6 -7
v 0 6 -7
v -1 6 -8
v 0 6 -8
v -1 6 -9
v 0 6 -9

# faces
f 3/3/1 2/3/1 1/3/1
f 4/3/1 2/3/1 3/3/1
f 7/3/1 6/3/1 5/3/1
f 8/3/1 6/3/1 7/3/1
f 14/4/1 10/4/1 9/4/1
f 15/4/1 10/4/1 14/4/1
f 16/4/1 12/4/1 11/4/1
f 17/4/1 12/4/1 16/4/1
f 19/4/1 14/4/1 13/4/1
f 20/4/1 14/4/1 19/4/1
f 21/4/1 16/4/1 15/4/1
f 22/4/1 16/4/1 21/4/1
f 23/4/1 19/4/1 18/4/1
f 24/4/1 19/4/1 23/4/1
f 25/4/1 21/4/1 20/4/1
f 26/4/1 21/4/1 25/4/1
f 30/3/1 28/3/1 27/3/1
f 31/2/1 29/2/1 28/2/1
f 31/3/1 28/3/1 30/3/1
f 32/2/1 29/2/1 31/2/1
f 35/4/1 34/4/1 33/4/1
f 36/4/1 34/4/1 35/4/1
f 39/3/1 38/3/1 37/3/1
f 40/3/1 38/3/1 39/3/1
f 45/4/1 42/4/1 41/4/1
f 46/4/1 42/4/1 45/4/1
f 49/4/1 44/4/1 43/4/1
f 50/2/1 45/2/1 44/2/1
f 50/4/1 44/4/1 49/4/1
f 51/2/1 45/2/1 50/2/1
f 52/2/1 48/2/1 47/2/1
f 53/2/1 48/2/1 52/2/1
f 56/2/1 51/2/1 50/2/1
f 56/2/1 53/2/1 52/2/1
f 56/2/1 52/2/1 51/2/1
f 56/2/1 54/2/1 53/2/1
f 57/2/1 54/2/1 56/2/1
f 58/2/1 54/2/1 57/2/1
f 59/4/1 56/4/1 55/4/1
f 60/2/1 57/2/1 56/2/1
f 60/4/1 56/4/1 59/4/1
f 61/2/1 57/2/1 60/2/1
f 62/2/1 57/2/1 61/2/1
f 63/2/1 57/2/1 62/2/1
f 64/1/1 62/1/1 61/1/1
f 65/1/1 62/1/1 64/1/1
f 68/4/1 67/4/1 66/4/1
f 69/4/1 67/4/1 68/4/1
f 74/2/1 71/2/1 70/2/1
f 75/2/1 71/2/1 74/2/1
f 76/4/1 73/4/1 72/4/1
f 77/4/1 73/4/1 76/4/1
f 79/2/1 78/2/1 77/2/1
f 79/2/1 77/2/1 76/2/1
f 80/2/1 78/2/1 79/2/1
f 88/4/1 82/4/1 81/4/1
f 89/4/1 82/4/1 88/4/1
f 90/1/1 84/1/1 83/1/1
f 91/1/1 84/1/1 90/1/1
f 92/3/1 86/3/1 85/3/1
f 93/3/1 86/3/1 92/3/1
f 94/3/1 86/3/1 93/3/1
f 95/2/1 87/2/1 86/2/1
f 95/3/1 86/3/1 94/3/1
f 96/2/1 87/2/1 95/2/1
f 99/4/1 98/4/1 97/4/1
f 100/4/1 98/4/1 99/4/1
f 103/2/1 102/2/1 101/2/1
f 104/2/1 102/2/1 103/2/1
f 105/2/1 102/2/1 104/2/1
f 106/1/1 104/1/1 103/1/1
f 107/1/1 104/1/1 106/1/1
f 110/3/1 109/3/1 108/3/1
f 111/3/1 109/3/1 110/3/1
f 117/4/1 113/4/1 112/4/1
f 118/4/1 113/4/1 117/4/1
f 119/4/1 115/4/1 114/4/1
f 120/4/1 115/4/1 119/4/1
f 122/4/1 117/4/1 116/4/1
f 123/4/1 117/4/1 122/4/1
f 124/4/1 119/4/1 118/4/1
f 125/4/1 119/4/1 124/4/1
f 126/4/1 122/4/1 121/4/1
f 127/4/1 122/4/1 126/4/1
f 128/4/1 124/4/1 123/4/1
f 129/4/1 124/4/1 128/4/1
f 130/4/2 131/4/2 135/4/2
f 135/4/2 131/4/2 136/4/2
f 132/4/2 133/4/2 137/4/2
f 137/4/2 133/4/2 138/4/2
f 134/4/2 135/4/2 140/4/2
f 140/4/2 135/4/2 141/4/2
f 136/4/2 137/4/2 142/4/2
f 142/4/2 137/4/2 143/4/2
f 139/4/2 140/4/2 144/4/2
f 144/4/2 140/4/2 145/4/2
f 141/4/2 142/4/2 146/4/2
f 146/4/2 142/4/2 147/4/2
f 148/3/2 149/3/2 150/3/2
f 150/3/2 149/3/2 151/3/2
f 152/4/2 153/4/2 154/4/2
f 154/4/2 153/4/2 155/4/2
f 156/2/2 157/2/2 158/2/2
f 158/2/2 157/2/2 159/2/2
f 159/2/2 157/2/2 160/2/2
f 158/1/2 159/1/2 161/1/2
f 161/1/2 159/1/2 162/1/2
f 163/4/2 164/4/2 165/4/2
f 165/4/2 164/4/2 166/4/2
f 167/2/2 168/2/2 171/2/2
f 171/2/2 168/2/2 172/2/2
f 169/4/2 170/4/2 173/4/2
f 173/4/2 170/4/2 174/4/2
f 174/2/2 175/2/2 176/2/2
f 173/2/2 174/2/2 176/2/2
f 176/2/2 175/2/2 177/2/2
f 178/4/2 179/4/2 185/4/2
f 185/4/2 179/4/2 186/4/2
f 180/1/2 181/1/2 187/1/2
f 187/1/2 181/1/2 188/1/2
f 182/3/2 183/3/2 189/3/2
f 189/3/2 183/3/2 190/3/2
f 190/3/2 183/3/2 191/3/2
f 183/2/2 184/2/2 192/2/2
f 191/3/2 183/3/2 192/3/2
f 192/2/2 184/2/2 193/2/2
f 194/4/2 195/4/2 198/4/2
f 198/4/2 195/4/2 199/4/2
f 196/4/2 197/4/2 202/4/2
f 197/2/2 198/2/2 203/2/2
f 202/4/2 197/4/2 203/4/2
f 203/2/2 198/2/2 204/2/2
f 200/2/2 201/2/2 205/2/2
f 205/2/2 201/2/2 206/2/2
f 203/2/2 204/2/2 209/2/2
f 205/2/2 206/2/2 209/2/2
f 204/2/2 205/2/2 209/2/2
f 206/2/2 207/2/2 209/2/2
f 209/2/2 207/2/2 210/2/2
f 210/2/2 207/2/2 211/2/2
f 208/4/2 209/4/2 212/4/2
f 209/2/2 210/2/2 213/2/2
f 212/4/2 209/4/2 213/4/2
f 213/2/2 210/2/2 214/2/2
f 214/2/2 210/2/2 215/2/2
f 215/2/2 210/2/2 216/2/2
f 214/1/2 215/1/2 217/1/2
f 217/1/2 215/1/2 218/1/2
f 219/4/2 220/4/2 221/4/2
f 221/4/2 220/4/2 222/4/2
f 223/3/2 224/3/2 225/3/2
f 225/3/2 224/3/2 226/3/2
f 227/3/2 228/3/2 230/3/2
f 228/2/2 229/2/2 231/2/2
f 230/3/2 228/3/2 231/3/2
f 231/2/2 229/2/2 232/2/2
f 233/4/2 234/4/2 238/4/2
f 238/4/2 234/4/2 239/4/2
f 235/4/2 236/4/2 240/4/2
f 240/4/2 236/4/2 241/4/2
f 237/4/2 238/4/2 243/4/2
f 243/4/2 238/4/2 244/4/2
f 239/4/2 240/4/2 245/4/2
f 245/4/2 240/4/2 246/4/2
f 242/4/2 243/4/2 247/4/2
f 247/4/2 243/4/2 248/4/2
f 244/4/2 245/4/2 249/4/2
f 249/4/2 245/4/2 250/4/2
f 251/3/2 252/3/2 253/3/2
f 253/3/2 252/3/2 254/3/2
f 255/3/2 256/3/2 257/3/2
f 257/3/2 256/3/2 258/3/2
f 262/4/3 260/4/3 259/4/3
f 263/4/3 260/4/3 262/4/3
f 266/4/3 262/4/3 261/4/3
f 266/4/3 264/4/3 263/4/3
f 266/4/3 263/4/3 262/4/3
f 267/4/3 264/4/3 266/4/3
f 269/4/3 266/4/3 265/4/3
f 269/4/3 268/4/3 267/4/3
f 269/4/3 267/4/3 266/4/3
f 270/4/3 268/4/3 269/4/3
f 271/4/3 268/4/3 270/4/3
f 272/4/3 268/4/3 271/4/3
f 273/4/3 271/4/3 270/4/3
f 274/4/3 271/4/3 273/4/3
f 275/4/3 271/4/3 274/4/3
f 276/4/3 271/4/3 275/4/3
f 277/4/3 275/4/3 274/4/3
f 278/4/3 275/4/3 277/4/3
f 282/3/3 280/3/3 279/3/3
f 283/4/3 282/4/3 281/4/3
f 284/3/3 280/3/3 282/3/3
f 284/4/3 282/4/3 283/4/3
f 286/3/3 280/3/3 284/3/3
f 287/4/3 286/4/3 285/4/3
f 288/3/3 280/3/3 286/3/3
f 288/4/3 286/4/3 287/4/3
f 289/3/3 280/3/3 288/3/3
f 290/3/3 280/3/3 289/3/3
f 293/4/3 292/4/3 291/4/3
f 294/4/3 292/4/3 293/4/3
f 297/4/3 296/4/3 295/4/3
f 298/4/3 296/4/3 297/4/3
f 301/3/3 300/3/3 299/3/3
f 305/3/3 301/3/3 299/3/3
f 305/4/3 302/4/3 301/4/3
f 306/4/3 302/4/3 305/4/3
f 307/4/3 304/4/3 303/4/3
f 308/4/3 304/4/3 307/4/3
f 310/3/3 305/3/3 299/3/3
f 311/3/3 305/3/3 310/3/3
f 312/4/3 310/4/3 309/4/3
f 313/4/3 310/4/3 312/4/3
f 318/1/3 315/1/3 314/1/3
f 319/1/3 315/1/3 318/1/3
f 320/4/3 317/4/3 316/4/3
f 321/4/3 317/4/3 320/4/3
f 323/3/3 322/3/3 321/3/3
f 327/3/3 323/3/3 321/3/3
f 327/4/3 324/4/3 323/4/3
f 328/4/3 324/4/3 327/4/3
f 329/4/3 326/4/3 325/4/3
f 330/4/3 326/4/3 329/4/3
f 331/3/3 327/3/3 321/3/3
f 332/3/3 327/3/3 331/3/3
f 335/4/3 334/4/3 333/4/3
f 336/4/3 334/4/3 335/4/3
f 339/1/3 338/1/3 337/1/3
f 340/1/3 338/1/3 339/1/3
f 343/1/3 342/1/3 341/1/3
f 344/1/3 342/1/3 343/1/3
f 347/4/3 346/4/3 345/4/3
f 348/4/3 346/4/3 347/4/3
f 351/4/3 350/4/3 349/4/3
f 352/4/3 350/4/3 351/4/3
f 355/4/3 354/4/3 353/4/3
f 356/4/3 354/4/3 355/4/3
f 359/2/3 358/2/3 357/2/3
f 360/2/3 358/2/3 359/2/3
f 363/3/3 362/3/3 361/3/3
f 364/3/3 362/3/3 363/3/3
f 367/3/3 366/3/3 365/3/3
f 368/3/3 366/3/3 367/3/3
f 371/3/3 370/3/3 369/3/3
f 372/3/3 370/3/3 371/3/3
f 375/3/3 374/3/3 373/3/3
f 376/3/3 374/3/3 375/3/3
f 381/4/3 378/4/3 377/4/3
f 382/4/3 378/4/3 381/4/3
f 383/3/3 380/3/3 379/3/3
f 384/3/3 380/3/3 383/3/3
f 387/3/3 386/3/3 385/3/3
f 388/3/3 386/3/3 387/3/3
f 389/4/4 390/4/4 391/4/4
f 391/4/4 390/4/4 392/4/4
f 393/4/4 394/4/4 397/4/4
f 397/4/4 394/4/4 398/4/4
f 395/4/4 396/4/4 399/4/4
f 399/4/4 396/4/4 400/4/4
f 401/4/4 402/4/4 403/4/4
f 403/4/4 402/4/4 404/4/4
f 405/4/4 406/4/4 407/4/4
f 407/4/4 406/4/4 408/4/4
f 409/4/4 410/4/4 411/4/4
f 411/4/4 410/4/4 412/4/4
f 413/4/4 414/4/4 415/4/4
f 415/4/4 414/4/4 416/4/4
f 417/3/4 418/3/4 419/3/4
f 419/3/4 418/3/4 420/3/4
f 420/3/4 418/3/4 421/3/4
f 421/3/4 418/3/4 422/3/4
f 423/4/4 424/4/4 425/4/4
f 425/4/4 424/4/4 426/4/4
f 427/3/4 428/3/4 432/3/4
f 429/4/4 430/4/4 433/4/4
f 433/4/4 430/4/4 434/4/4
f 431/4/4 432/4/4 435/4/4
f 432/3/4 428/3/4 436/3/4
f 435/4/4 432/4/4 436/4/4
f 436/3/4 428/3/4 437/3/4
f 436/2/4 437/2/4 438/2/4
f 438/2/4 437/2/4 439/2/4
f 438/3/4 439/3/4 442/3/4
f 442/3/4 439/3/4 443/3/4
f 440/4/4 441/4/4 444/4/4
f 444/4/4 441/4/4 445/4/4
f 446/2/4 447/2/4 451/2/4
f 447/1/4 448/1/4 452/1/4
f 451/2/4 447/2/4 452/2/4
f 452/1/4 448/1/4 453/1/4
f 449/4/4 450/4/4 454/4/4
f 454/4/4 450/4/4 455/4/4
f 456/3/4 457/3/4 458/3/4
f 458/3/4 457/3/4 459/3/4
f 458/2/4 459/2/4 463/2/4
f 463/2/4 459/2/4 464/2/4
f 460/4/4 461/4/4 465/4/4
f 465/4/4 461/4/4 466/4/4
f 462/4/4 463/4/4 467/4/4
f 463/3/4 464/3/4 468/3/4
f 467/4/4 463/4/4 468/4/4
f 468/3/4 464/3/4 469/3/4
f 469/3/4 464/3/4 470/3/4
f 471/4/4 472/4/4 473/4/4
f 473/4/4 472/4/4 474/4/4
f 475/1/4 476/1/4 477/1/4
f 477/1/4 476/1/4 478/1/4
f 479/1/4 480/1/4 481/1/4
f 481/1/4 480/1/4 482/1/4
f 483/4/4 484/4/4 485/4/4
f 485/4/4 484/4/4 486/4/4
f 487/3/4 488/3/4 489/3/4
f 487/3/4 489/3/4 491/3/4
f 489/4/4 490/4/4 492/4/4
f 491/3/4 489/3/4 492/3/4
f 492/4/4 490/4/4 493/4/4
f 491/2/4 492/2/4 494/2/4
f 494/2/4 492/2/4 495/2/4
f 494/3/4 495/3/4 496/3/4
f 496/3/4 495/3/4 497/3/4
f 498/3/4 499/3/4 500/3/4
f 500/3/4 499/3/4 501/3/4
f 500/2/4 501/2/4 502/2/4
f 502/2/4 501/2/4 503/2/4
f 502/3/4 503/3/4 505/3/4
f 503/4/4 504/4/4 505/4/4
f 505/4/4 504/4/4 506/4/4
f 502/3/4 505/3/4 507/3/4
f 507/3/4 505/3/4 508/3/4
f 509/2/4 510/2/4 511/2/4
f 511/2/4 510/2/4 512/2/4
f 513/2/4 514/2/4 515/2/4
f 515/2/4 514/2/4 516/2/4
f 517/2/4 518/2/4 519/2/4
f 519/2/4 518/2/4 520/2/4
f 521/2/4 522/2/4 523/2/4
f 523/2/4 522/2/4 524/2/4
f 525/2/4 526/2/4 527/2/4
f 527/2/4 526/2/4 528/2/4
f 529/4/4 530/4/4 531/4/4
f 531/4/4 530/4/4 532/4/4
f 533/2/4 534/2/4 535/2/4
f 535/2/4 534/2/4 536/2/4
f 535/3/4 536/3/4 538/3/4
f 538/3/4 536/3/4 539/3/4
f 537/2/4 538/2/4 541/2/4
f 538/3/4 539/3/4 542/3/4
f 541/2/4 538/2/4 542/2/4
f 539/2/4 540/2/4 543/2/4
f 542/3/4 539/3/4 543/3/4
f 543/2/4 540/2/4 544/2/4
f 542/3/4 543/3/4 545/3/4
f 545/3/4 543/3/4 546/3/4
f 545/2/4 546/2/4 547/2/4
f 547/2/4 546/2/4 548/2/4
f 551/4/5 550/4/5 549/4/5
f 552/4/5 550/4/5 551/4/5
f 557/4/5 554/4/5 553/4/5
f 558/4/5 554/4/5 557/4/5
f 559/4/5 556/4/5 555/4/5
f 560/4/5 556/4/5 559/4/5
f 565/4/5 562/4/5 561/4/5
f 566/4/5 562/4/5 565/4/5
f 567/4/5 564/4/5 563/4/5
f 568/4/5 564/4/5 567/4/5
f 570/2/5 566/2/5 565/2/5
f 570/2/5 567/2/5 566/2/5
f 570/2/5 568/2/5 567/2/5
f 571/2/5 568/2/5 570/2/5
f 572/2/5 568/2/5 571/2/5
f 573/2/5 568/2/5 572/2/5
f 575/3/5 570/3/5 569/3/5
f 576/3/5 572/3/5 571/3/5
f 577/3/5 572/3/5 576/3/5
f 578/3/5 574/3/5 573/3/5
f 579/3/5 577/3/5 576/3/5
f 579/3/5 578/3/5 577/3/5
f 579/3/5 575/3/5 569/3/5
f 579/3/5 576/3/5 575/3/5
f 580/3/5 578/3/5 579/3/5
f 581/3/5 574/3/5 578/3/5
f 581/3/5 578/3/5 580/3/5
f 582/3/5 574/3/5 581/3/5
f 583/3/5 579/3/5 569/3/5
f 584/2/5 580/2/5 579/2/5
f 584/3/5 579/3/5 583/3/5
f 585/3/5 581/3/5 580/3/5
f 585/2/5 580/2/5 584/2/5
f 586/3/5 581/3/5 585/3/5
f 587/3/5 581/3/5 586/3/5
f 588/2/5 582/2/5 581/2/5
f 588/3/5 581/3/5 587/3/5
f 589/3/5 574/3/5 582/3/5
f 589/2/5 582/2/5 588/2/5
f 590/3/5 574/3/5 589/3/5
f 591/2/5 587/2/5 586/2/5
f 592/2/5 587/2/5 591/2/5
f 593/2/5 587/2/5 592/2/5
f 594/2/5 587/2/5 593/2/5
f 595/2/5 593/2/5 592/2/5
f 596/2/5 593/2/5 595/2/5
f 599/4/5 598/4/5 597/4/5
f 600/4/5 598/4/5 599/4/5
f 605/4/5 602/4/5 601/4/5
f 606/4/5 602/4/5 605/4/5
f 607/4/5 604/4/5 603/4/5
f 608/4/5 604/4/5 607/4/5
f 613/2/5 610/2/5 609/2/5
f 614/2/5 612/2/5 611/2/5
f 615/2/5 613/2/5 609/2/5
f 615/2/5 614/2/5 613/2/5
f 616/2/5 614/2/5 615/2/5
f 617/2/5 612/2/5 614/2/5
f 617/2/5 614/2/5 616/2/5
f 618/2/5 612/2/5 617/2/5
f 621/2/5 620/2/5 619/2/5
f 622/2/5 620/2/5 621/2/5
f 627/4/5 624/4/5 623/4/5
f 628/4/5 624/4/5 627/4/5
f 629/4/5 626/4/5 625/4/5
f 630/4/5 626/4/5 629/4/5
f 635/4/5 632/4/5 631/4/5
f 636/4/5 632/4/5 635/4/5
f 637/4/5 634/4/5 633/4/5
f 638/4/5 634/4/5 637/4/5
f 644/3/5 640/3/5 639/3/5
f 645/3/5 640/3/5 644/3/5
f 648/3/5 642/3/5 641/3/5
f 649/3/5 642/3/5 648/3/5
f 651/3/5 646/3/5 645/3/5
f 651/3/5 644/3/5 643/3/5
f 651/3/5 645/3/5 644/3/5
f 652/3/5 646/3/5 651/3/5
f 653/3/5 650/3/5 649/3/5
f 653/3/5 649/3/5 648/3/5
f 653/3/5 648/3/5 647/3/5
f 654/3/5 650/3/5 653/3/5
f 655/2/5 652/2/5 651/2/5
f 656/3/5 646/3/5 652/3/5
f 656/2/5 652/2/5 655/2/5
f 657/3/5 646/3/5 656/3/5
f 658/3/5 653/3/5 647/3/5
f 659/2/5 654/2/5 653/2/5
f 659/3/5 653/3/5 658/3/5
f 660/2/5 654/2/5 659/2/5
f 665/4/5 662/4/5 661/4/5
f 666/4/5 662/4/5 665/4/5
f 667/4/5 664/4/5 663/4/5
f 668/4/5 664/4/5 667/4/5
f 673/4/5 670/4/5 669/4/5
f 674/4/5 670/4/5 673/4/5
f 675/4/5 672/4/5 671/4/5
f 676/4/5 672/4/5 675/4/5
f 683/3/5 678/3/5 677/3/5
f 684/3/5 680/3/5 679/3/5
f 685/3/5 680/3/5 684/3/5
f 686/3/5 682/3/5 681/3/5
f 687/3/5 685/3/5 684/3/5
f 687/3/5 686/3/5 685/3/5
f 687/3/5 683/3/5 677/3/5
f 687/3/5 684/3/5 683/3/5
f 688/3/5 686/3/5 687/3/5
f 689/3/5 686/3/5 688/3/5
f 690/3/5 686/3/5 689/3/5
f 691/3/5 686/3/5 690/3/5
f 692/3/5 686/3/5 691/3/5
f 693/3/5 686/3/5 692/3/5
f 694/3/5 686/3/5 693/3/5
f 695/3/5 686/3/5 694/3/5
f 696/3/5 682/3/5 686/3/5
f 696/3/5 686/3/5 695/3/5
f 697/3/5 687/3/5 677/3/5
f 698/3/5 687/3/5 697/3/5
f 699/2/5 689/2/5 688/2/5
f 700/3/5 690/3/5 689/3/5
f 700/2/5 689/2/5 699/2/5
f 701/3/5 690/3/5 700/3/5
f 702/3/5 694/3/5 693/3/5
f 703/2/5 695/2/5 694/2/5
f 703/3/5 694/3/5 702/3/5
f 704/2/5 695/2/5 703/2/5
f 705/3/5 682/3/5 696/3/5
f 706/3/5 682/3/5 705/3/5
f 707/3/6 708/3/6 715/3/6
f 709/3/6 710/3/6 716/3/6
f 711/3/6 712/3/6 717/3/6
f 713/3/6 714/3/6 718/3/6
f 707/3/6 715/3/6 719/3/6
f 715/3/6 716/3/6 719/3/6
f 716/3/6 710/3/6 720/3/6
f 719/3/6 716/3/6 720/3/6
f 720/3/6 710/3/6 721/3/6
f 711/3/6 717/3/6 722/3/6
f 717/3/6 718/3/6 722/3/6
f 722/3/6 718/3/6 723/3/6
f 718/3/6 714/3/6 724/3/6
f 723/3/6 718/3/6 724/3/6
f 707/3/6 719/3/6 725/3/6
f 725/3/6 719/3/6 726/3/6
f 720/2/6 721/2/6 727/2/6
f 721/3/6 710/3/6 728/3/6
f 727/2/6 721/2/6 728/2/6
f 728/3/6 710/3/6 729/3/6
f 711/3/6 722/3/6 730/3/6
f 722/2/6 723/2/6 731/2/6
f 730/3/6 722/3/6 731/3/6
f 731/2/6 723/2/6 732/2/6
f 724/3/6 714/3/6 733/3/6
f 733/3/6 714/3/6 734/3/6
f 735/4/6 736/4/6 739/4/6
f 739/4/6 736/4/6 740/4/6
f 737/4/6 738/4/6 741/4/6
f 741/4/6 738/4/6 742/4/6
f 743/4/6 744/4/6 747/4/6
f 747/4/6 744/4/6 748/4/6
f 745/4/6 746/4/6 751/4/6
f 751/4/6 746/4/6 752/4/6
f 753/4/6 754/4/6 757/4/6
f 757/4/6 754/4/6 758/4/6
f 749/2/6 750/2/6 759/2/6
f 759/2/6 750/2/6 760/2/6
f 755/4/6 756/4/6 761/4/6
f 761/4/6 756/4/6 762/4/6
f 763/4/6 764/4/6 767/4/6
f 767/4/6 764/4/6 768/4/6
f 765/4/6 766/4/6 769/4/6
f 769/4/6 766/4/6 770/4/6
f 771/4/6 772/4/6 775/4/6
f 775/4/6 772/4/6 776/4/6
f 767/2/6 768/2/6 777/2/6
f 768/2/6 769/2/6 777/2/6
f 769/2/6 770/2/6 777/2/6
f 777/2/6 770/2/6 778/2/6
f 773/4/6 774/4/6 779/4/6
f 779/4/6 774/4/6 780/4/6
f 767/2/6 777/2/6 783/2/6
f 783/2/6 777/2/6 784/2/6
f 778/2/6 770/2/6 785/2/6
f 785/2/6 770/2/6 786/2/6
f 781/4/6 782/4/6 789/4/6
f 789/4/6 782/4/6 790/4/6
f 787/4/6 788/4/6 795/4/6
f 795/4/6 788/4/6 796/4/6
f 791/2/6 792/2/6 797/2/6
f 793/2/6 794/2/6 798/2/6
f 791/2/6 797/2/6 800/2/6
f 797/2/6 798/2/6 800/2/6
f 800/2/6 798/2/6 801/2/6
f 798/2/6 794/2/6 802/2/6
f 801/2/6 798/2/6 802/2/6
f 802/2/6 794/2/6 803/2/6
f 800/3/6 801/3/6 806/3/6
f 799/3/6 800/3/6 806/3/6
f 802/3/6 803/3/6 807/3/6
f 803/3/6 804/3/6 807/3/6
f 805/3/6 806/3/6 809/3/6
f 806/3/6 801/3/6 810/3/6
f 809/3/6 806/3/6 810/3/6
f 810/3/6 801/3/6 811/3/6
f 807/3/6 808/3/6 812/3/6
f 802/3/6 807/3/6 812/3/6
f 812/3/6 808/3/6 813/3/6
f 813/3/6 808/3/6 814/3/6
f 809/2/6 810/2/6 815/2/6
f 810/3/6 811/3/6 816/3/6
f 815/2/6 810/2/6 816/2/6
f 816/3/6 811/3/6 817/3/6
f 812/3/6 813/3/6 818/3/6
f 813/2/6 814/2/6 819/2/6
f 818/3/6 813/3/6 819/3/6
f 819/2/6 814/2/6 820/2/6
f 821/4/6 822/4/6 823/4/6
f 823/4/6 822/4/6 824/4/6
f 825/1/6 826/1/6 828/1/6
f 828/1/6 826/1/6 829/1/6
f 827/1/6 828/1/6 831/1/6
f 831/1/6 828/1/6 832/1/6
f 829/1/6 830/1/6 833/1/6
f 833/1/6 830/1/6 834/1/6
f 835/3/6 836/3/6 837/3/6
f 837/3/6 836/3/6 838/3/6
f 839/3/6 840/3/6 841/3/6
f 841/3/6 840/3/6 842/3/6
f 842/3/6 840/3/6 843/3/6
f 843/3/6 840/3/6 844/3/6
f 844/3/6 840/3/6 845/3/6
f 845/3/6 840/3/6 846/3/6
f 839/3/6 841/3/6 847/3/6
f 841/2/6 842/2/6 848/2/6
f 847/3/6 841/3/6 848/3/6
f 842/3/6 843/3/6 849/3/6
f 848/2/6 842/2/6 849/2/6
f 849/3/6 843/3/6 850/3/6
f 844/3/6 845/3/6 851/3/6
f 845/2/6 846/2/6 852/2/6
f 851/3/6 845/3/6 852/3/6
f 846/3/6 840/3/6 853/3/6
f 852/2/6 846/2/6 853/2/6
f 853/3/6 840/3/6 854/3/6
f 855/3/6 856/3/6 857/3/6
f 857/3/6 856/3/6 858/3/6
f 857/2/6 858/2/6 859/2/6
f 859/2/6 858/2/6 860/2/6
